<svg id="Component_6_1" data-name="Component 6 – 1" xmlns="http://www.w3.org/2000/svg" width="119" height="116" viewBox="0 0 119 116">
  <ellipse id="Ellipse_3" data-name="Ellipse 3" cx="59.5" cy="58" rx="59.5" ry="58" fill="#fff"/>
  <path id="graph" d="M31.53,2.25a4.69,4.69,0,0,0-2.51,8.644L25.968,21.606q-.142-.009-.285-.009a4.645,4.645,0,0,0-2.791.929l-5.639-4.712a4.681,4.681,0,1,0-7.7,1.855L6.239,26.307q-.217-.02-.436-.02a4.693,4.693,0,1,0,2.649.828l3.128-6.272a4.657,4.657,0,0,0,4.383-1.052l5.459,4.562a4.68,4.68,0,1,0,6.769-2.02l3.052-10.711c.095.005.189.009.285.009a4.69,4.69,0,0,0,0-9.38ZM5.8,33.322a2.345,2.345,0,1,1,2.339-2.345A2.342,2.342,0,0,1,5.8,33.322ZM12.82,18.665a2.345,2.345,0,1,1,2.339-2.345A2.342,2.342,0,0,1,12.82,18.665Zm12.863,9.967a2.345,2.345,0,1,1,2.339-2.345,2.342,2.342,0,0,1-2.339,2.345ZM31.53,9.285A2.345,2.345,0,1,1,33.869,6.94,2.342,2.342,0,0,1,31.53,9.285Z" transform="translate(22.794 27.583)" fill="#6a39b0"/>
  <g id="money" transform="translate(57.875 53.5)">
    <path id="Path_11" data-name="Path 11" d="M30.375,4.5H1.125V27h29.25Zm-2.25,20.25H3.375v-18h24.75Z" fill="#6a39b0"/>
    <path id="Path_12" data-name="Path 12" d="M32.625,10.125V29.25H6.75V31.5H34.875V10.125Z" fill="#6a39b0"/>
    <path id="Path_13" data-name="Path 13" d="M15.75,21.267a5.306,5.306,0,0,0,5.063-5.507,5.305,5.305,0,0,0-5.063-5.507,5.305,5.305,0,0,0-5.063,5.507A5.305,5.305,0,0,0,15.75,21.267Zm0-8.765a3.063,3.063,0,0,1,2.813,3.257,3.063,3.063,0,0,1-2.813,3.257,3.063,3.063,0,0,1-2.813-3.257A3.063,3.063,0,0,1,15.75,12.5Z" fill="#6a39b0"/>
    <path id="Path_14" data-name="Path 14" d="M5.625,9.563h2.25V21.938H5.625Z" fill="#6a39b0"/>
    <path id="Path_15" data-name="Path 15" d="M23.625,9.563h2.25V21.938h-2.25Z" fill="#6a39b0"/>
  </g>
</svg>
