<svg id="Component_5_1" data-name="Component 5 – 1" xmlns="http://www.w3.org/2000/svg" width="119" height="116" viewBox="0 0 119 116">
  <ellipse id="Ellipse_5" data-name="Ellipse 5" cx="59.5" cy="58" rx="59.5" ry="58" fill="#fff"/>
  <circle id="Ellipse_7" data-name="Ellipse 7" cx="10" cy="10" r="10" transform="translate(48 28)" fill="#6a39b0"/>
  <rect id="Rectangle_5" data-name="Rectangle 5" width="21" height="28" rx="5" transform="translate(47 49)" fill="#6a39b0"/>
  <rect id="Rectangle_6" data-name="Rectangle 6" width="9" height="27" rx="4.5" transform="translate(47 69)" fill="#6a39b0"/>
  <rect id="Rectangle_7" data-name="Rectangle 7" width="9" height="27" rx="4.5" transform="translate(59 69)" fill="#6a39b0"/>
  <rect id="Rectangle_8" data-name="Rectangle 8" width="8" height="22" rx="4" transform="matrix(0.839, 0.545, -0.545, 0.839, 71.636, 41.029)" fill="#6a39b0"/>
  <rect id="Rectangle_9" data-name="Rectangle 9" width="7" height="27" rx="3.5" transform="matrix(-0.588, 0.809, -0.809, -0.588, 78.346, 45.761)" fill="#6a39b0"/>
  <rect id="Rectangle_10" data-name="Rectangle 10" width="7" height="27" rx="3.5" transform="matrix(-0.588, -0.809, 0.809, -0.588, 40.769, 50)" fill="#6a39b0"/>
  <g id="Ellipse_8" data-name="Ellipse 8" transform="translate(47 27)" fill="none" stroke="#fff" stroke-width="1">
    <circle cx="11" cy="11" r="11" stroke="none"/>
    <circle cx="11" cy="11" r="10.5" fill="none"/>
  </g>
  <rect id="Rectangle_11" data-name="Rectangle 11" width="8" height="22" rx="4" transform="matrix(-0.839, 0.545, -0.545, -0.839, 55.346, 58.471)" fill="#6a39b0"/>
  <ellipse id="Ellipse_9" data-name="Ellipse 9" cx="5.5" cy="3.5" rx="5.5" ry="3.5" transform="translate(52 38)" fill="#fff"/>
  <rect id="Rectangle_12" data-name="Rectangle 12" width="12" height="6" transform="translate(52 36)" fill="#6a39b0"/>
</svg>
