<svg id="Component_2_1" data-name="Component 2 – 1" xmlns="http://www.w3.org/2000/svg" width="119" height="116" viewBox="0 0 119 116">
  <ellipse id="Ellipse_1" data-name="Ellipse 1" cx="59.5" cy="58" rx="59.5" ry="58" fill="#fff"/>
  <g id="money" transform="translate(41.5 19.5)">
    <path id="Path_2" data-name="Path 2" d="M30.375,4.5H1.125V27h29.25Zm-2.25,20.25H3.375v-18h24.75Z" fill="#6a39b0"/>
    <path id="Path_3" data-name="Path 3" d="M32.625,10.125V29.25H6.75V31.5H34.875V10.125Z" fill="#6a39b0"/>
    <path id="Path_4" data-name="Path 4" d="M15.75,21.267a5.306,5.306,0,0,0,5.063-5.507,5.305,5.305,0,0,0-5.063-5.507,5.305,5.305,0,0,0-5.063,5.507A5.305,5.305,0,0,0,15.75,21.267Zm0-8.765a3.063,3.063,0,0,1,2.813,3.257,3.063,3.063,0,0,1-2.813,3.257,3.063,3.063,0,0,1-2.813-3.257A3.063,3.063,0,0,1,15.75,12.5Z" fill="#6a39b0"/>
    <path id="Path_5" data-name="Path 5" d="M5.625,9.563h2.25V21.938H5.625Z" fill="#6a39b0"/>
    <path id="Path_6" data-name="Path 6" d="M23.625,9.563h2.25V21.938h-2.25Z" fill="#6a39b0"/>
  </g>
  <g id="arrow-90deg-left" transform="matrix(-0.695, -0.719, 0.719, -0.695, 33.634, 87.176)">
    <path id="Path_7" data-name="Path 7" d="M13.734,5.391a1.125,1.125,0,0,1,0,1.593L7.778,12.938l5.956,5.954a1.126,1.126,0,0,1-1.593,1.593l-6.75-6.75a1.125,1.125,0,0,1,0-1.593l6.75-6.75a1.125,1.125,0,0,1,1.593,0Z" fill="#6a39b0" fill-rule="evenodd"/>
    <path id="Path_8" data-name="Path 8" d="M6.188,12.938a1.125,1.125,0,0,1,1.125-1.125H21.938a5.625,5.625,0,0,1,5.625,5.625V29.813a1.125,1.125,0,0,1-2.25,0V17.438a3.375,3.375,0,0,0-3.375-3.375H7.313a1.125,1.125,0,0,1-1.125-1.125Z" fill="#6a39b0" fill-rule="evenodd"/>
  </g>
  <g id="arrow-90deg-left-2" data-name="arrow-90deg-left" transform="translate(85.445 33.738) rotate(45)">
    <path id="Path_7-2" data-name="Path 7" d="M13.734,5.391a1.125,1.125,0,0,1,0,1.593L7.778,12.938l5.956,5.954a1.126,1.126,0,0,1-1.593,1.593l-6.75-6.75a1.125,1.125,0,0,1,0-1.593l6.75-6.75a1.125,1.125,0,0,1,1.593,0Z" fill="#6a39b0" fill-rule="evenodd"/>
    <path id="Path_8-2" data-name="Path 8" d="M6.188,12.938a1.125,1.125,0,0,1,1.125-1.125H21.938a5.625,5.625,0,0,1,5.625,5.625V29.813a1.125,1.125,0,0,1-2.25,0V17.438a3.375,3.375,0,0,0-3.375-3.375H7.313a1.125,1.125,0,0,1-1.125-1.125Z" fill="#6a39b0" fill-rule="evenodd"/>
  </g>
  <g id="house-door" transform="translate(43 65.136)">
    <path id="Path_9" data-name="Path 9" d="M15.785,2.536a1.033,1.033,0,0,1,1.43,0L29.331,14.272a.963.963,0,0,1,.294.692V28.656a.994.994,0,0,1-1.01.978H19.529a.994.994,0,0,1-1.01-.978V20.832H14.481v7.824a.994.994,0,0,1-1.01.978H4.385a.994.994,0,0,1-1.01-.978V14.964a.963.963,0,0,1,.294-.692L15.785,2.536ZM5.394,15.369V27.678h7.068V19.854a.994.994,0,0,1,1.01-.978h6.058a.994.994,0,0,1,1.01.978v7.824h7.068V15.369L16.5,4.611Z" fill="#6a39b0" fill-rule="evenodd"/>
    <path id="Path_10" data-name="Path 10" d="M29.25,5.625V13.5L24.75,9V5.625A1.125,1.125,0,0,1,25.875,4.5h2.25A1.125,1.125,0,0,1,29.25,5.625Z" transform="translate(-2.999)" fill="#6a39b0" fill-rule="evenodd"/>
  </g>
</svg>
